<svg width="16" height="16" viewBox="0 0 16 16" fill="none" xmlns="http://www.w3.org/2000/svg">
<path d="M2.3335 12.4987C2.06016 12.4987 1.8335 12.272 1.8335 11.9987V4.66536C1.8335 1.72536 2.72683 0.832031 5.66683 0.832031H10.3335C13.2735 0.832031 14.1668 1.72536 14.1668 4.66536V11.332C14.1668 11.4387 14.1668 11.5387 14.1602 11.6454C14.1402 11.9187 13.8935 12.132 13.6268 12.112C13.3535 12.092 13.1402 11.852 13.1602 11.5787C13.1668 11.4987 13.1668 11.412 13.1668 11.332V4.66536C13.1668 2.28536 12.7202 1.83203 10.3335 1.83203H5.66683C3.28016 1.83203 2.8335 2.28536 2.8335 4.66536V11.9987C2.8335 12.272 2.60683 12.4987 2.3335 12.4987Z" fill="#F8991D"/>
<path d="M11.3335 15.1667H4.66683C3.10683 15.1667 1.8335 13.8933 1.8335 12.3333V11.9C1.8335 10.5733 2.9135 9.5 4.2335 9.5H13.6668C13.9402 9.5 14.1668 9.72667 14.1668 10V12.3333C14.1668 13.8933 12.8935 15.1667 11.3335 15.1667ZM4.2335 10.5C3.46016 10.5 2.8335 11.1267 2.8335 11.9V12.3333C2.8335 13.3467 3.6535 14.1667 4.66683 14.1667H11.3335C12.3468 14.1667 13.1668 13.3467 13.1668 12.3333V10.5H4.2335Z" fill="#F8991D"/>
<path d="M10.6668 5.16797H5.3335C5.06016 5.16797 4.8335 4.9413 4.8335 4.66797C4.8335 4.39464 5.06016 4.16797 5.3335 4.16797H10.6668C10.9402 4.16797 11.1668 4.39464 11.1668 4.66797C11.1668 4.9413 10.9402 5.16797 10.6668 5.16797Z" fill="#F8991D"/>
<path d="M8.66683 7.5H5.3335C5.06016 7.5 4.8335 7.27333 4.8335 7C4.8335 6.72667 5.06016 6.5 5.3335 6.5H8.66683C8.94016 6.5 9.16683 6.72667 9.16683 7C9.16683 7.27333 8.94016 7.5 8.66683 7.5Z" fill="#F8991D"/>
</svg>
