<svg width="16" height="16" viewBox="0 0 16 16" fill="none" xmlns="http://www.w3.org/2000/svg">
<path d="M8.00016 14.7184C7.80016 14.7184 7.60016 14.6717 7.4335 14.5784C6.18683 13.8984 3.9935 13.1784 2.62016 12.9984L2.42683 12.9717C1.5535 12.865 0.833496 12.045 0.833496 11.1584V3.10504C0.833496 2.57838 1.04016 2.09838 1.42016 1.75171C1.80016 1.40504 2.2935 1.23838 2.8135 1.28504C4.28016 1.39838 6.4935 2.13171 7.74683 2.91838L7.90683 3.01171C7.9535 3.03838 8.0535 3.03838 8.0935 3.01838L8.20016 2.95171C9.4535 2.16504 11.6668 1.41838 13.1402 1.29171C13.1535 1.29171 13.2068 1.29171 13.2202 1.29171C13.7068 1.24504 14.2068 1.41838 14.5802 1.76504C14.9602 2.11171 15.1668 2.59171 15.1668 3.11838V11.165C15.1668 12.0584 14.4468 12.8717 13.5668 12.9784L13.3468 13.005C11.9735 13.185 9.7735 13.9117 8.5535 14.585C8.3935 14.6784 8.20016 14.7184 8.00016 14.7184ZM2.6535 2.27838C2.44016 2.27838 2.24683 2.35171 2.0935 2.49171C1.92683 2.64504 1.8335 2.86504 1.8335 3.10504V11.1584C1.8335 11.5517 2.1735 11.9317 2.5535 11.985L2.7535 12.0117C4.2535 12.2117 6.5535 12.965 7.88683 13.6917C7.94683 13.7184 8.0335 13.725 8.06683 13.7117C9.40016 12.9717 11.7135 12.2117 13.2202 12.0117L13.4468 11.985C13.8268 11.9384 14.1668 11.5517 14.1668 11.1584V3.11171C14.1668 2.86504 14.0735 2.65171 13.9068 2.49171C13.7335 2.33838 13.5135 2.26504 13.2668 2.27838C13.2535 2.27838 13.2002 2.27838 13.1868 2.27838C11.9135 2.39171 9.86016 3.07838 8.74016 3.77838L8.6335 3.85171C8.26683 4.07838 7.74683 4.07838 7.3935 3.85838L7.2335 3.76504C6.0935 3.06504 4.04016 2.38504 2.7335 2.27838C2.70683 2.27838 2.68016 2.27838 2.6535 2.27838Z" fill="#F8991D"/>
<path d="M8 14.1602C7.72667 14.1602 7.5 13.9335 7.5 13.6602V3.66016C7.5 3.38682 7.72667 3.16016 8 3.16016C8.27333 3.16016 8.5 3.38682 8.5 3.66016V13.6602C8.5 13.9402 8.27333 14.1602 8 14.1602Z" fill="#F8991D"/>
<path d="M5.1665 6.16016H3.6665C3.39317 6.16016 3.1665 5.93349 3.1665 5.66016C3.1665 5.38682 3.39317 5.16016 3.6665 5.16016H5.1665C5.43984 5.16016 5.6665 5.38682 5.6665 5.66016C5.6665 5.93349 5.43984 6.16016 5.1665 6.16016Z" fill="#F8991D"/>
<path d="M5.6665 8.16016H3.6665C3.39317 8.16016 3.1665 7.93349 3.1665 7.66016C3.1665 7.38682 3.39317 7.16016 3.6665 7.16016H5.6665C5.93984 7.16016 6.1665 7.38682 6.1665 7.66016C6.1665 7.93349 5.93984 8.16016 5.6665 8.16016Z" fill="#F8991D"/>
</svg>
