<svg width="16" height="17" viewBox="0 0 16 17" fill="none" xmlns="http://www.w3.org/2000/svg">
<path d="M2.33398 13C2.06065 13 1.83398 12.7733 1.83398 12.5V5.16667C1.83398 2.22667 2.72732 1.33334 5.66732 1.33334H10.334C13.274 1.33334 14.1673 2.22667 14.1673 5.16667V11.8333C14.1673 11.94 14.1673 12.04 14.1607 12.1467C14.1407 12.42 13.894 12.6333 13.6273 12.6133C13.354 12.5933 13.1407 12.3533 13.1607 12.08C13.1673 12 13.1673 11.9133 13.1673 11.8333V5.16667C13.1673 2.78667 12.7207 2.33334 10.334 2.33334H5.66732C3.28065 2.33334 2.83398 2.78667 2.83398 5.16667V12.5C2.83398 12.7733 2.60732 13 2.33398 13Z" fill="#232323"/>
<path d="M11.334 15.6667H4.66732C3.10732 15.6667 1.83398 14.3933 1.83398 12.8333V12.4C1.83398 11.0733 2.91398 10 4.23398 10H13.6673C13.9407 10 14.1673 10.2267 14.1673 10.5V12.8333C14.1673 14.3933 12.894 15.6667 11.334 15.6667ZM4.23398 11C3.46065 11 2.83398 11.6267 2.83398 12.4V12.8333C2.83398 13.8467 3.65398 14.6667 4.66732 14.6667H11.334C12.3473 14.6667 13.1673 13.8467 13.1673 12.8333V11H4.23398Z" fill="#232323"/>
<path d="M10.6673 5.66666H5.33398C5.06065 5.66666 4.83398 5.44 4.83398 5.16666C4.83398 4.89333 5.06065 4.66666 5.33398 4.66666H10.6673C10.9407 4.66666 11.1673 4.89333 11.1673 5.16666C11.1673 5.44 10.9407 5.66666 10.6673 5.66666Z" fill="#232323"/>
<path d="M8.66732 8H5.33398C5.06065 8 4.83398 7.77333 4.83398 7.5C4.83398 7.22667 5.06065 7 5.33398 7H8.66732C8.94065 7 9.16732 7.22667 9.16732 7.5C9.16732 7.77333 8.94065 8 8.66732 8Z" fill="#232323"/>
</svg>
