<svg width="16" height="17" viewBox="0 0 16 17" fill="none" xmlns="http://www.w3.org/2000/svg">
<path d="M8.00065 15.22C7.80065 15.22 7.60065 15.1733 7.43398 15.08C6.18732 14.4 3.99398 13.68 2.62065 13.5L2.42732 13.4733C1.55398 13.3667 0.833984 12.5467 0.833984 11.66V3.60667C0.833984 3.08 1.04065 2.6 1.42065 2.25334C1.80065 1.90667 2.29398 1.74 2.81398 1.78667C4.28065 1.9 6.49398 2.63334 7.74732 3.42L7.90732 3.51334C7.95398 3.54 8.05398 3.54 8.09398 3.52L8.20065 3.45334C9.45398 2.66667 11.6673 1.92 13.1406 1.79334C13.154 1.79334 13.2073 1.79334 13.2207 1.79334C13.7073 1.74667 14.2073 1.92 14.5807 2.26667C14.9607 2.61334 15.1673 3.09334 15.1673 3.62V11.6667C15.1673 12.56 14.4473 13.3733 13.5673 13.48L13.3473 13.5067C11.974 13.6867 9.77398 14.4133 8.55398 15.0867C8.39398 15.18 8.20065 15.22 8.00065 15.22ZM2.65398 2.78C2.44065 2.78 2.24732 2.85334 2.09398 2.99334C1.92732 3.14667 1.83398 3.36667 1.83398 3.60667V11.66C1.83398 12.0533 2.17398 12.4333 2.55398 12.4867L2.75398 12.5133C4.25398 12.7133 6.55398 13.4667 7.88732 14.1933C7.94732 14.22 8.03398 14.2267 8.06732 14.2133C9.40065 13.4733 11.714 12.7133 13.2207 12.5133L13.4473 12.4867C13.8273 12.44 14.1673 12.0533 14.1673 11.66V3.61334C14.1673 3.36667 14.074 3.15334 13.9073 2.99334C13.734 2.84 13.514 2.76667 13.2673 2.78C13.254 2.78 13.2007 2.78 13.1873 2.78C11.914 2.89334 9.86065 3.58 8.74065 4.28L8.63398 4.35334C8.26732 4.58 7.74732 4.58 7.39398 4.36L7.23398 4.26667C6.09398 3.56667 4.04065 2.88667 2.73398 2.78C2.70732 2.78 2.68065 2.78 2.65398 2.78Z" fill="#232323"/>
<path d="M8 14.66C7.72667 14.66 7.5 14.4333 7.5 14.16V4.16C7.5 3.88667 7.72667 3.66 8 3.66C8.27333 3.66 8.5 3.88667 8.5 4.16V14.16C8.5 14.44 8.27333 14.66 8 14.66Z" fill="#232323"/>
<path d="M5.16602 6.66H3.66602C3.39268 6.66 3.16602 6.43334 3.16602 6.16C3.16602 5.88667 3.39268 5.66 3.66602 5.66H5.16602C5.43935 5.66 5.66602 5.88667 5.66602 6.16C5.66602 6.43334 5.43935 6.66 5.16602 6.66Z" fill="#232323"/>
<path d="M5.66602 8.66H3.66602C3.39268 8.66 3.16602 8.43334 3.16602 8.16C3.16602 7.88667 3.39268 7.66 3.66602 7.66H5.66602C5.93935 7.66 6.16602 7.88667 6.16602 8.16C6.16602 8.43334 5.93935 8.66 5.66602 8.66Z" fill="#232323"/>
</svg>
