<svg width="16" height="17" viewBox="0 0 16 17" fill="none" xmlns="http://www.w3.org/2000/svg">
<path d="M13.18 9.66537H10.4867C9.14667 9.66537 8.5 9.04537 8.5 7.76537V3.23203C8.5 1.95203 9.15333 1.33203 10.4867 1.33203H13.18C14.52 1.33203 15.1667 1.95203 15.1667 3.23203V7.76537C15.1667 9.04537 14.5133 9.66537 13.18 9.66537ZM10.4867 2.33203C9.64 2.33203 9.5 2.5587 9.5 3.23203V7.76537C9.5 8.4387 9.64 8.66537 10.4867 8.66537H13.18C14.0267 8.66537 14.1667 8.4387 14.1667 7.76537V3.23203C14.1667 2.5587 14.0267 2.33203 13.18 2.33203H10.4867V2.33203Z" fill="#232323"/>
<path d="M13.18 15.668H10.4867C9.14667 15.668 8.5 15.048 8.5 13.768V12.568C8.5 11.288 9.15333 10.668 10.4867 10.668H13.18C14.52 10.668 15.1667 11.288 15.1667 12.568V13.768C15.1667 15.048 14.5133 15.668 13.18 15.668ZM10.4867 11.668C9.64 11.668 9.5 11.8946 9.5 12.568V13.768C9.5 14.4413 9.64 14.668 10.4867 14.668H13.18C14.0267 14.668 14.1667 14.4413 14.1667 13.768V12.568C14.1667 11.8946 14.0267 11.668 13.18 11.668H10.4867Z" fill="#232323"/>
<path d="M5.51325 15.6654H2.81992C1.47992 15.6654 0.833252 15.0454 0.833252 13.7654V9.23203C0.833252 7.95203 1.48659 7.33203 2.81992 7.33203H5.51325C6.85325 7.33203 7.49992 7.95203 7.49992 9.23203V13.7654C7.49992 15.0454 6.84659 15.6654 5.51325 15.6654ZM2.81992 8.33203C1.97325 8.33203 1.83325 8.5587 1.83325 9.23203V13.7654C1.83325 14.4387 1.97325 14.6654 2.81992 14.6654H5.51325C6.35992 14.6654 6.49992 14.4387 6.49992 13.7654V9.23203C6.49992 8.5587 6.35992 8.33203 5.51325 8.33203H2.81992V8.33203Z" fill="#232323"/>
<path d="M5.51325 6.33203H2.81992C1.47992 6.33203 0.833252 5.71203 0.833252 4.43203V3.23203C0.833252 1.95203 1.48659 1.33203 2.81992 1.33203H5.51325C6.85325 1.33203 7.49992 1.95203 7.49992 3.23203V4.43203C7.49992 5.71203 6.84659 6.33203 5.51325 6.33203ZM2.81992 2.33203C1.97325 2.33203 1.83325 2.5587 1.83325 3.23203V4.43203C1.83325 5.10536 1.97325 5.33203 2.81992 5.33203H5.51325C6.35992 5.33203 6.49992 5.10536 6.49992 4.43203V3.23203C6.49992 2.5587 6.35992 2.33203 5.51325 2.33203H2.81992V2.33203Z" fill="#232323"/>
</svg>
