<svg width="16" height="17" viewBox="0 0 16 17" fill="none" xmlns="http://www.w3.org/2000/svg">
<path d="M14.3327 7.76667V3.23334C14.3327 2.23334 13.906 1.83334 12.846 1.83334H10.1527C9.09268 1.83334 8.66602 2.23334 8.66602 3.23334V7.76667C8.66602 8.76667 9.09268 9.16667 10.1527 9.16667H12.846C13.906 9.16667 14.3327 8.76667 14.3327 7.76667Z" fill="#F8991D"/>
<path d="M7.33268 9.23334V13.7667C7.33268 14.7667 6.90602 15.1667 5.84602 15.1667H3.15268C2.09268 15.1667 1.66602 14.7667 1.66602 13.7667V9.23334C1.66602 8.23334 2.09268 7.83334 3.15268 7.83334H5.84602C6.90602 7.83334 7.33268 8.23334 7.33268 9.23334Z" fill="#F8991D"/>
<path d="M14.3327 13.7667V11.9C14.3327 10.9 13.906 10.5 12.846 10.5H10.1527C9.09268 10.5 8.66602 10.9 8.66602 11.9V13.7667C8.66602 14.7667 9.09268 15.1667 10.1527 15.1667H12.846C13.906 15.1667 14.3327 14.7667 14.3327 13.7667Z" fill="#F8991D"/>
<path d="M7.33268 5.1V3.23334C7.33268 2.23334 6.90602 1.83334 5.84602 1.83334H3.15268C2.09268 1.83334 1.66602 2.23334 1.66602 3.23334V5.1C1.66602 6.1 2.09268 6.5 3.15268 6.5H5.84602C6.90602 6.5 7.33268 6.1 7.33268 5.1Z" fill="#F8991D"/>
</svg>
