<svg width="16" height="17" viewBox="0 0 16 17" fill="none" xmlns="http://www.w3.org/2000/svg">
<path d="M10.0007 15.6667H9.33398C9.06065 15.6667 8.83398 15.44 8.83398 15.1667C8.83398 14.8933 9.06065 14.6667 9.33398 14.6667H10.0007C13.074 14.6667 14.1673 13.5733 14.1673 10.5V6.5C14.1673 3.42667 13.074 2.33334 10.0007 2.33334H6.00065C2.92732 2.33334 1.83398 3.42667 1.83398 6.5V7.15334C1.83398 7.42667 1.60732 7.65334 1.33398 7.65334C1.06065 7.65334 0.833984 7.42667 0.833984 7.15334V6.5C0.833984 2.88 2.38065 1.33334 6.00065 1.33334H10.0007C13.6207 1.33334 15.1673 2.88 15.1673 6.5V10.5C15.1673 14.12 13.6207 15.6667 10.0007 15.6667Z" fill="#232323"/>
<path d="M8.6663 8.33334C8.53964 8.33334 8.41297 8.28667 8.31297 8.18667C8.11964 7.99334 8.11964 7.67334 8.31297 7.48L10.8063 4.98H9.33297C9.05964 4.98 8.83297 4.75334 8.83297 4.48C8.83297 4.20667 9.05297 3.98 9.33297 3.98H12.0063C12.2063 3.98 12.393 4.1 12.4663 4.28667C12.5463 4.47334 12.4996 4.68667 12.3596 4.83334L9.01963 8.18667C8.91963 8.28667 8.79297 8.33334 8.6663 8.33334Z" fill="#232323"/>
<path d="M12.0059 7.66C11.7325 7.66 11.5059 7.43334 11.5059 7.16V4.48C11.5059 4.20667 11.7325 3.98 12.0059 3.98C12.2792 3.98 12.5059 4.20667 12.5059 4.48V7.15334C12.5059 7.43334 12.2792 7.66 12.0059 7.66Z" fill="#232323"/>
<path d="M5.23398 15.6667H3.43398C1.66065 15.6667 0.833984 14.84 0.833984 13.0667V11.2667C0.833984 9.49334 1.66065 8.66667 3.43398 8.66667H5.23398C7.00732 8.66667 7.83398 9.49334 7.83398 11.2667V13.0667C7.83398 14.84 7.00732 15.6667 5.23398 15.6667ZM3.43398 9.66667C2.20732 9.66667 1.83398 10.04 1.83398 11.2667V13.0667C1.83398 14.2933 2.20732 14.6667 3.43398 14.6667H5.23398C6.46065 14.6667 6.83398 14.2933 6.83398 13.0667V11.2667C6.83398 10.04 6.46065 9.66667 5.23398 9.66667H3.43398V9.66667Z" fill="#232323"/>
</svg>
