<svg width="16" height="17" viewBox="0 0 16 17" fill="none" xmlns="http://www.w3.org/2000/svg">
<path d="M10.0002 15.6654H9.3335C9.06016 15.6654 8.8335 15.4387 8.8335 15.1654C8.8335 14.892 9.06016 14.6654 9.3335 14.6654H10.0002C13.0735 14.6654 14.1668 13.572 14.1668 10.4987V6.4987C14.1668 3.42536 13.0735 2.33203 10.0002 2.33203H6.00016C2.92683 2.33203 1.8335 3.42536 1.8335 6.4987V7.15203C1.8335 7.42536 1.60683 7.65203 1.3335 7.65203C1.06016 7.65203 0.833496 7.42536 0.833496 7.15203V6.4987C0.833496 2.8787 2.38016 1.33203 6.00016 1.33203H10.0002C13.6202 1.33203 15.1668 2.8787 15.1668 6.4987V10.4987C15.1668 14.1187 13.6202 15.6654 10.0002 15.6654Z" fill="#F8991D"/>
<path d="M8.66679 8.3338C8.54012 8.3338 8.41346 8.28714 8.31346 8.18714C8.12012 7.9938 8.12012 7.6738 8.31346 7.48047L10.8068 4.98047H9.33346C9.06012 4.98047 8.83346 4.7538 8.83346 4.48047C8.83346 4.20714 9.05346 3.98047 9.33346 3.98047H12.0068C12.2068 3.98047 12.3935 4.10047 12.4668 4.28714C12.5468 4.4738 12.5001 4.68714 12.3601 4.8338L9.02012 8.18714C8.92012 8.28714 8.79346 8.3338 8.66679 8.3338Z" fill="#F8991D"/>
<path d="M12.0068 7.66047C11.7335 7.66047 11.5068 7.4338 11.5068 7.16047V4.48047C11.5068 4.20714 11.7335 3.98047 12.0068 3.98047C12.2802 3.98047 12.5068 4.20714 12.5068 4.48047V7.1538C12.5068 7.4338 12.2802 7.66047 12.0068 7.66047Z" fill="#F8991D"/>
<path d="M5.2335 15.668H3.4335C1.66016 15.668 0.833496 14.8413 0.833496 13.068V11.268C0.833496 9.49464 1.66016 8.66797 3.4335 8.66797H5.2335C7.00683 8.66797 7.8335 9.49464 7.8335 11.268V13.068C7.8335 14.8413 7.00683 15.668 5.2335 15.668ZM3.4335 9.66797C2.20683 9.66797 1.8335 10.0413 1.8335 11.268V13.068C1.8335 14.2946 2.20683 14.668 3.4335 14.668H5.2335C6.46016 14.668 6.8335 14.2946 6.8335 13.068V11.268C6.8335 10.0413 6.46016 9.66797 5.2335 9.66797H3.4335V9.66797Z" fill="#F8991D"/>
</svg>
