<svg width="16" height="17" viewBox="0 0 16 17" fill="none" xmlns="http://www.w3.org/2000/svg">
<path d="M8.0126 14.1867C6.45926 14.1867 4.90593 13.94 3.4326 13.4467C2.8726 13.2533 2.44593 12.86 2.25926 12.3467C2.06593 11.8333 2.1326 11.2667 2.43926 10.76L3.20593 9.48667C3.36593 9.22 3.5126 8.68667 3.5126 8.37334V6.44667C3.5126 3.96667 5.5326 1.94667 8.0126 1.94667C10.4926 1.94667 12.5126 3.96667 12.5126 6.44667V8.37334C12.5126 8.68 12.6593 9.22 12.8193 9.49334L13.5793 10.76C13.8659 11.24 13.9193 11.82 13.7259 12.3467C13.5326 12.8733 13.1126 13.2733 12.5859 13.4467C11.1193 13.94 9.56593 14.1867 8.0126 14.1867ZM8.0126 2.94667C6.08593 2.94667 4.5126 4.51334 4.5126 6.44667V8.37334C4.5126 8.86 4.3126 9.58 4.06593 10L3.29926 11.2733C3.15259 11.52 3.1126 11.78 3.19926 12C3.27926 12.2267 3.47926 12.4 3.7526 12.4933C6.53926 13.4267 9.4926 13.4267 12.2793 12.4933C12.5193 12.4133 12.7059 12.2333 12.7926 11.9933C12.8793 11.7533 12.8593 11.4933 12.7259 11.2733L11.9593 10C11.7059 9.56667 11.5126 8.85334 11.5126 8.36667V6.44667C11.5126 4.51334 9.94593 2.94667 8.0126 2.94667Z" fill="#232323"/>
<path d="M9.25308 3.12667C9.20642 3.12667 9.15975 3.12 9.11308 3.10667C8.91975 3.05333 8.73308 3.01333 8.55308 2.98667C7.98642 2.91333 7.43975 2.95333 6.92642 3.10667C6.73975 3.16667 6.53975 3.10667 6.41308 2.96667C6.28642 2.82667 6.24642 2.62667 6.31975 2.44667C6.59308 1.74667 7.25975 1.28667 8.01975 1.28667C8.77975 1.28667 9.44642 1.74 9.71975 2.44667C9.78642 2.62667 9.75308 2.82667 9.62642 2.96667C9.52642 3.07333 9.38642 3.12667 9.25308 3.12667Z" fill="#232323"/>
<path d="M8.01367 15.7067C7.35367 15.7067 6.71367 15.44 6.247 14.9733C5.78034 14.5067 5.51367 13.8667 5.51367 13.2067H6.51367C6.51367 13.6 6.67367 13.9867 6.95367 14.2667C7.23367 14.5467 7.62034 14.7067 8.01367 14.7067C8.84034 14.7067 9.51367 14.0333 9.51367 13.2067H10.5137C10.5137 14.5867 9.39367 15.7067 8.01367 15.7067Z" fill="#232323"/>
</svg>
