<svg width="16" height="16" viewBox="0 0 16 16" fill="none" xmlns="http://www.w3.org/2000/svg">
<path d="M8.01357 13.6853C6.46024 13.6853 4.90691 13.4386 3.43357 12.9453C2.87357 12.752 2.4469 12.3586 2.26024 11.8453C2.0669 11.332 2.13357 10.7653 2.44024 10.2586L3.2069 8.98531C3.3669 8.71865 3.51357 8.18531 3.51357 7.87198V5.94531C3.51357 3.46531 5.53357 1.44531 8.01357 1.44531C10.4936 1.44531 12.5136 3.46531 12.5136 5.94531V7.87198C12.5136 8.17865 12.6602 8.71865 12.8202 8.99198L13.5802 10.2586C13.8669 10.7386 13.9202 11.3186 13.7269 11.8453C13.5336 12.372 13.1136 12.772 12.5869 12.9453C11.1202 13.4386 9.56691 13.6853 8.01357 13.6853ZM8.01357 2.44531C6.08691 2.44531 4.51357 4.01198 4.51357 5.94531V7.87198C4.51357 8.35865 4.31357 9.07865 4.0669 9.49865L3.30024 10.772C3.15357 11.0186 3.11357 11.2786 3.20024 11.4986C3.28024 11.7253 3.48024 11.8986 3.75357 11.992C6.54024 12.9253 9.49357 12.9253 12.2802 11.992C12.5202 11.912 12.7069 11.732 12.7936 11.492C12.8802 11.252 12.8602 10.992 12.7269 10.772L11.9602 9.49865C11.7069 9.06531 11.5136 8.35198 11.5136 7.86531V5.94531C11.5136 4.01198 9.94691 2.44531 8.01357 2.44531Z" fill="#F8991D"/>
<path d="M9.25357 2.62516C9.20691 2.62516 9.16024 2.61849 9.11357 2.60516C8.92024 2.55182 8.73357 2.51182 8.55357 2.48516C7.98691 2.41182 7.44024 2.45182 6.92691 2.60516C6.74024 2.66516 6.54024 2.60516 6.41357 2.46516C6.28691 2.32516 6.24691 2.12516 6.32024 1.94516C6.59357 1.24516 7.26024 0.785156 8.02024 0.785156C8.78024 0.785156 9.4469 1.23849 9.72024 1.94516C9.7869 2.12516 9.75357 2.32516 9.6269 2.46516C9.5269 2.57182 9.38691 2.62516 9.25357 2.62516Z" fill="#F8991D"/>
<path d="M8.01318 15.207C7.35318 15.207 6.71318 14.9404 6.24652 14.4737C5.77985 14.007 5.51318 13.367 5.51318 12.707H6.51318C6.51318 13.1004 6.67318 13.487 6.95318 13.767C7.23318 14.047 7.61985 14.207 8.01318 14.207C8.83985 14.207 9.51318 13.5337 9.51318 12.707H10.5132C10.5132 14.087 9.39318 15.207 8.01318 15.207Z" fill="#F8991D"/>
</svg>
