<svg width="16" height="16" viewBox="0 0 16 16" fill="none" xmlns="http://www.w3.org/2000/svg">
<path d="M8.10622 7.74536C8.08622 7.74536 8.07288 7.74536 8.05288 7.74536C8.01955 7.7387 7.97288 7.7387 7.93288 7.74536C5.99955 7.68536 4.53955 6.16536 4.53955 4.29203C4.53955 2.38536 6.09288 0.832031 7.99955 0.832031C9.90622 0.832031 11.4596 2.38536 11.4596 4.29203C11.4529 6.16536 9.98622 7.68536 8.12622 7.74536C8.11955 7.74536 8.11288 7.74536 8.10622 7.74536ZM7.99955 1.83203C6.64622 1.83203 5.53955 2.9387 5.53955 4.29203C5.53955 5.62536 6.57955 6.6987 7.90622 6.74536C7.93955 6.7387 8.03288 6.7387 8.11955 6.74536C9.42622 6.68536 10.4529 5.61203 10.4595 4.29203C10.4595 2.9387 9.35288 1.83203 7.99955 1.83203Z" fill="#F8991D"/>
<path d="M8.11307 15.0346C6.80641 15.0346 5.49307 14.7013 4.49974 14.0346C3.57307 13.4213 3.06641 12.5813 3.06641 11.668C3.06641 10.7546 3.57307 9.90797 4.49974 9.28797C6.49974 7.9613 9.73974 7.9613 11.7264 9.28797C12.6464 9.9013 13.1597 10.7413 13.1597 11.6546C13.1597 12.568 12.6531 13.4146 11.7264 14.0346C10.7264 14.7013 9.41974 15.0346 8.11307 15.0346ZM5.05307 10.128C4.41307 10.5546 4.06641 11.1013 4.06641 11.6746C4.06641 12.2413 4.41974 12.788 5.05307 13.208C6.71307 14.3213 9.51307 14.3213 11.1731 13.208C11.8131 12.7813 12.1597 12.2346 12.1597 11.6613C12.1597 11.0946 11.8064 10.548 11.1731 10.128C9.51307 9.0213 6.71307 9.0213 5.05307 10.128Z" fill="#F8991D"/>
</svg>
