<svg width="16" height="17" viewBox="0 0 16 17" fill="none" xmlns="http://www.w3.org/2000/svg">
<path d="M8.10573 8.24667C8.08573 8.24667 8.0724 8.24667 8.0524 8.24667C8.01906 8.24 7.9724 8.24 7.9324 8.24667C5.99906 8.18667 4.53906 6.66667 4.53906 4.79334C4.53906 2.88667 6.0924 1.33334 7.99906 1.33334C9.90573 1.33334 11.4591 2.88667 11.4591 4.79334C11.4524 6.66667 9.98573 8.18667 8.12573 8.24667C8.11906 8.24667 8.1124 8.24667 8.10573 8.24667ZM7.99906 2.33334C6.64573 2.33334 5.53906 3.44 5.53906 4.79334C5.53906 6.12667 6.57906 7.2 7.90573 7.24667C7.93906 7.24 8.0324 7.24 8.11906 7.24667C9.42573 7.18667 10.4524 6.11334 10.4591 4.79334C10.4591 3.44 9.3524 2.33334 7.99906 2.33334Z" fill="#232323"/>
<path d="M8.11307 15.5333C6.80641 15.5333 5.49307 15.2 4.49974 14.5333C3.57307 13.92 3.06641 13.08 3.06641 12.1667C3.06641 11.2533 3.57307 10.4067 4.49974 9.78667C6.49974 8.46001 9.73974 8.46001 11.7264 9.78667C12.6464 10.4 13.1597 11.24 13.1597 12.1533C13.1597 13.0667 12.6531 13.9133 11.7264 14.5333C10.7264 15.2 9.41974 15.5333 8.11307 15.5333ZM5.05307 10.6267C4.41307 11.0533 4.06641 11.6 4.06641 12.1733C4.06641 12.74 4.41974 13.2867 5.05307 13.7067C6.71307 14.82 9.51307 14.82 11.1731 13.7067C11.8131 13.28 12.1597 12.7333 12.1597 12.16C12.1597 11.5933 11.8064 11.0467 11.1731 10.6267C9.51307 9.52 6.71307 9.52 5.05307 10.6267Z" fill="#232323"/>
</svg>
