<svg width="16" height="17" viewBox="0 0 16 17" fill="none" xmlns="http://www.w3.org/2000/svg">
<path d="M5.33398 15.3799C5.14732 15.3799 4.95397 15.3333 4.78064 15.2399C4.40064 15.0399 4.16732 14.6399 4.16732 14.2133V13.2666C2.15398 13.06 0.833984 11.5799 0.833984 9.45992V5.45996C0.833984 3.16663 2.37398 1.62663 4.66732 1.62663H11.334C13.6273 1.62663 15.1673 3.16663 15.1673 5.45996V9.45992C15.1673 11.7533 13.6273 13.2933 11.334 13.2933H8.82064L5.98063 15.1866C5.7873 15.3133 5.56065 15.3799 5.33398 15.3799ZM4.66732 2.61995C2.94732 2.61995 1.83398 3.73329 1.83398 5.45329V9.45333C1.83398 11.1733 2.94732 12.2867 4.66732 12.2867C4.94065 12.2867 5.16732 12.5133 5.16732 12.7867V14.2067C5.16732 14.2933 5.22065 14.3333 5.25399 14.3533C5.28732 14.3733 5.35399 14.3933 5.42733 14.3466L8.394 12.3733C8.474 12.32 8.57399 12.2867 8.67399 12.2867H11.3407C13.0607 12.2867 14.174 11.1733 14.174 9.45333V5.45329C14.174 3.73329 13.0607 2.61995 11.3407 2.61995H4.66732V2.61995Z" fill="#232323"/>
<path d="M7.99923 8.57333C7.72589 8.57333 7.49923 8.34666 7.49923 8.07333V7.93335C7.49923 7.16002 8.06588 6.78001 8.27922 6.63334C8.52588 6.46668 8.60588 6.35335 8.60588 6.18002C8.60588 5.84668 8.33256 5.57333 7.99923 5.57333C7.66589 5.57333 7.39258 5.84668 7.39258 6.18002C7.39258 6.45335 7.16591 6.68002 6.89258 6.68002C6.61924 6.68002 6.39258 6.45335 6.39258 6.18002C6.39258 5.29335 7.11256 4.57333 7.99923 4.57333C8.88589 4.57333 9.60588 5.29335 9.60588 6.18002C9.60588 6.94002 9.0459 7.32 8.83923 7.46C8.57923 7.63334 8.49923 7.74669 8.49923 7.93335V8.07333C8.49923 8.35333 8.27256 8.57333 7.99923 8.57333Z" fill="#232323"/>
<path d="M8 10.2333C7.72 10.2333 7.5 10.0067 7.5 9.73332C7.5 9.45999 7.72667 9.23332 8 9.23332C8.27333 9.23332 8.5 9.45999 8.5 9.73332C8.5 10.0067 8.28 10.2333 8 10.2333Z" fill="#232323"/>
</svg>
