<svg width="16" height="17" viewBox="0 0 16 17" fill="none" xmlns="http://www.w3.org/2000/svg">
<path d="M5.3335 15.3783C5.14683 15.3783 4.95348 15.3317 4.78015 15.2383C4.40015 15.0383 4.16683 14.6383 4.16683 14.2116V13.265C2.1535 13.0583 0.833496 11.5783 0.833496 9.45829V5.45833C0.833496 3.165 2.3735 1.625 4.66683 1.625H11.3335C13.6268 1.625 15.1668 3.165 15.1668 5.45833V9.45829C15.1668 11.7516 13.6268 13.2916 11.3335 13.2916H8.82015L5.98014 15.185C5.78681 15.3117 5.56016 15.3783 5.3335 15.3783ZM4.66683 2.61833C2.94683 2.61833 1.8335 3.73166 1.8335 5.45166V9.4517C1.8335 11.1717 2.94683 12.285 4.66683 12.285C4.94016 12.285 5.16683 12.5117 5.16683 12.785V14.205C5.16683 14.2917 5.22017 14.3317 5.2535 14.3517C5.28683 14.3717 5.35351 14.3917 5.42684 14.345L8.39351 12.3717C8.47351 12.3184 8.5735 12.285 8.6735 12.285H11.3402C13.0602 12.285 14.1735 11.1717 14.1735 9.4517V5.45166C14.1735 3.73166 13.0602 2.61833 11.3402 2.61833H4.66683V2.61833Z" fill="#F8991D"/>
<path d="M7.99972 8.57422C7.72638 8.57422 7.49972 8.34755 7.49972 8.07422V7.93424C7.49972 7.16091 8.06637 6.7809 8.2797 6.63424C8.52637 6.46757 8.60636 6.35424 8.60636 6.18091C8.60636 5.84757 8.33305 5.57422 7.99972 5.57422C7.66638 5.57422 7.39307 5.84757 7.39307 6.18091C7.39307 6.45424 7.1664 6.68091 6.89307 6.68091C6.61973 6.68091 6.39307 6.45424 6.39307 6.18091C6.39307 5.29424 7.11305 4.57422 7.99972 4.57422C8.88638 4.57422 9.60636 5.29424 9.60636 6.18091C9.60636 6.94091 9.04639 7.3209 8.83972 7.4609C8.57972 7.63423 8.49972 7.74758 8.49972 7.93424V8.07422C8.49972 8.35422 8.27305 8.57422 7.99972 8.57422Z" fill="#F8991D"/>
<path d="M8 10.2344C7.72 10.2344 7.5 10.0077 7.5 9.73438C7.5 9.46104 7.72667 9.23438 8 9.23438C8.27333 9.23438 8.5 9.46104 8.5 9.73438C8.5 10.0077 8.28 10.2344 8 10.2344Z" fill="#F8991D"/>
</svg>
