<svg width="25" height="24" viewBox="0 0 25 24" fill="none" xmlns="http://www.w3.org/2000/svg">
<path d="M21.5 4.1V10.9C21.5 11.5934 21.3501 11.9494 21.1386 12.1483C20.9196 12.3544 20.5215 12.5 19.77 12.5H15.73C14.9785 12.5 14.5804 12.3544 14.3614 12.1483C14.1499 11.9494 14 11.5934 14 10.9V4.1C14 3.40657 14.1499 3.05057 14.3614 2.85167C14.5804 2.64556 14.9785 2.5 15.73 2.5H19.77C20.5215 2.5 20.9196 2.64556 21.1386 2.85167C21.3501 3.05057 21.5 3.40657 21.5 4.1Z" stroke="#F8991D"/>
<path d="M11 13.1V19.9C11 20.5934 10.8501 20.9494 10.6386 21.1483C10.4196 21.3544 10.0215 21.5 9.27 21.5H5.23C4.47854 21.5 4.08044 21.3544 3.86135 21.1483C3.64993 20.9494 3.5 20.5934 3.5 19.9V13.1C3.5 12.4066 3.64993 12.0506 3.86135 11.8517C4.08044 11.6456 4.47854 11.5 5.23 11.5H9.27C10.0215 11.5 10.4196 11.6456 10.6386 11.8517C10.8501 12.0506 11 12.4066 11 13.1Z" stroke="#F8991D"/>
<path d="M21.5 17.1V19.9C21.5 20.5934 21.3501 20.9494 21.1386 21.1483C20.9196 21.3544 20.5215 21.5 19.77 21.5H15.73C14.9785 21.5 14.5804 21.3544 14.3614 21.1483C14.1499 20.9494 14 20.5934 14 19.9V17.1C14 16.4066 14.1499 16.0506 14.3614 15.8517C14.5804 15.6456 14.9785 15.5 15.73 15.5H19.77C20.5215 15.5 20.9196 15.6456 21.1386 15.8517C21.3501 16.0506 21.5 16.4066 21.5 17.1Z" stroke="#F8991D"/>
<path d="M11 4.1V6.9C11 7.59343 10.8501 7.94943 10.6386 8.14833C10.4196 8.35444 10.0215 8.5 9.27 8.5H5.23C4.47854 8.5 4.08044 8.35444 3.86135 8.14833C3.64993 7.94943 3.5 7.59343 3.5 6.9V4.1C3.5 3.40657 3.64993 3.05057 3.86135 2.85167C4.08044 2.64556 4.47854 2.5 5.23 2.5H9.27C10.0215 2.5 10.4196 2.64556 10.6386 2.85167C10.8501 3.05057 11 3.40657 11 4.1Z" stroke="#F8991D"/>
</svg>
