<svg width="21" height="14" viewBox="0 0 21 14" fill="none" xmlns="http://www.w3.org/2000/svg">
<path d="M7.51 9.00003H1.5C0.95 9.00003 0.5 9.45003 0.5 10C0.5 10.55 0.95 11 1.5 11H7.51V12.79C7.51 13.24 8.05 13.46 8.36 13.14L11.14 10.35C11.33 10.15 11.33 9.84003 11.14 9.64003L8.36 6.85003C8.05 6.53003 7.51 6.76003 7.51 7.20003V9.00003ZM13.49 6.79003V5.00003H19.5C20.05 5.00003 20.5 4.55003 20.5 4.00003C20.5 3.45003 20.05 3.00003 19.5 3.00003H13.49V1.21003C13.49 0.76003 12.95 0.540031 12.64 0.860031L9.86 3.65003C9.67 3.85003 9.67 4.16003 9.86 4.36003L12.64 7.15003C12.95 7.46003 13.49 7.24003 13.49 6.79003Z" fill="#1410B4"/>
</svg>
