<svg width="17" height="16" viewBox="0 0 17 16" fill="none" xmlns="http://www.w3.org/2000/svg">
<path d="M0.5 0.5C0.5 0.367392 0.552678 0.240215 0.646447 0.146447C0.740215 0.0526784 0.867392 0 1 0L4 0C4.13261 0 4.25979 0.0526784 4.35355 0.146447C4.44732 0.240215 4.5 0.367392 4.5 0.5C4.5 0.632608 4.44732 0.759785 4.35355 0.853553C4.25979 0.947322 4.13261 1 4 1H1.5V3.5C1.5 3.63261 1.44732 3.75979 1.35355 3.85355C1.25979 3.94732 1.13261 4 1 4C0.867392 4 0.740215 3.94732 0.646447 3.85355C0.552678 3.75979 0.5 3.63261 0.5 3.5V0.5ZM12.5 0.5C12.5 0.367392 12.5527 0.240215 12.6464 0.146447C12.7402 0.0526784 12.8674 0 13 0L16 0C16.1326 0 16.2598 0.0526784 16.3536 0.146447C16.4473 0.240215 16.5 0.367392 16.5 0.5V3.5C16.5 3.63261 16.4473 3.75979 16.3536 3.85355C16.2598 3.94732 16.1326 4 16 4C15.8674 4 15.7402 3.94732 15.6464 3.85355C15.5527 3.75979 15.5 3.63261 15.5 3.5V1H13C12.8674 1 12.7402 0.947322 12.6464 0.853553C12.5527 0.759785 12.5 0.632608 12.5 0.5ZM1 12C1.13261 12 1.25979 12.0527 1.35355 12.1464C1.44732 12.2402 1.5 12.3674 1.5 12.5V15H4C4.13261 15 4.25979 15.0527 4.35355 15.1464C4.44732 15.2402 4.5 15.3674 4.5 15.5C4.5 15.6326 4.44732 15.7598 4.35355 15.8536C4.25979 15.9473 4.13261 16 4 16H1C0.867392 16 0.740215 15.9473 0.646447 15.8536C0.552678 15.7598 0.5 15.6326 0.5 15.5V12.5C0.5 12.3674 0.552678 12.2402 0.646447 12.1464C0.740215 12.0527 0.867392 12 1 12ZM16 12C16.1326 12 16.2598 12.0527 16.3536 12.1464C16.4473 12.2402 16.5 12.3674 16.5 12.5V15.5C16.5 15.6326 16.4473 15.7598 16.3536 15.8536C16.2598 15.9473 16.1326 16 16 16H13C12.8674 16 12.7402 15.9473 12.6464 15.8536C12.5527 15.7598 12.5 15.6326 12.5 15.5C12.5 15.3674 12.5527 15.2402 12.6464 15.1464C12.7402 15.0527 12.8674 15 13 15H15.5V12.5C15.5 12.3674 15.5527 12.2402 15.6464 12.1464C15.7402 12.0527 15.8674 12 16 12ZM4.5 4H5.5V5H4.5V4Z" fill="white"/>
<path d="M7.5 2H2.5V7H7.5V2ZM3.5 3H6.5V6H3.5V3ZM5.5 11H4.5V12H5.5V11Z" fill="white"/>
<path d="M7.5 9H2.5V14H7.5V9ZM3.5 10H6.5V13H3.5V10ZM11.5 4H12.5V5H11.5V4Z" fill="white"/>
<path d="M9.5 2H14.5V7H9.5V2ZM10.5 3V6H13.5V3H10.5ZM8.5 8V10H9.5V11H8.5V12H10.5V10H11.5V12H12.5V11H14.5V10H11.5V8H8.5ZM10.5 10H9.5V9H10.5V10ZM14.5 12H13.5V13H11.5V14H14.5V12ZM10.5 14V13H8.5V14H10.5Z" fill="white"/>
<path d="M12.5 9H14.5V8H12.5V9Z" fill="white"/>
</svg>
