<svg width="25" height="24" viewBox="0 0 25 24" fill="none" xmlns="http://www.w3.org/2000/svg">
<path d="M12.9544 3C18.3601 3 22.8574 6.88 23.8008 12C22.8584 17.12 18.3601 21 12.9544 21C7.54877 21 3.05141 17.12 2.10803 12C3.05041 6.88 7.54877 3 12.9544 3ZM12.9544 19C14.9991 18.9995 16.983 18.3068 18.5815 17.0352C20.18 15.7635 21.2984 13.9883 21.7536 12C21.2967 10.0133 20.1776 8.24 18.5793 6.97002C16.9809 5.70005 14.9979 5.00853 12.9544 5.00853C10.911 5.00853 8.92794 5.70005 7.32959 6.97002C5.73124 8.24 4.61212 10.0133 4.1552 12C4.61045 13.9883 5.72885 15.7635 7.32736 17.0352C8.92586 18.3068 10.9098 18.9995 12.9544 19V19ZM12.9544 16.5C11.7579 16.5 10.6104 16.0259 9.76439 15.182C8.91834 14.3381 8.44303 13.1935 8.44303 12C8.44303 10.8065 8.91834 9.66193 9.76439 8.81802C10.6104 7.9741 11.7579 7.5 12.9544 7.5C14.1509 7.5 15.2984 7.9741 16.1445 8.81802C16.9905 9.66193 17.4658 10.8065 17.4658 12C17.4658 13.1935 16.9905 14.3381 16.1445 15.182C15.2984 16.0259 14.1509 16.5 12.9544 16.5ZM12.9544 14.5C13.6191 14.5 14.2566 14.2366 14.7267 13.7678C15.1967 13.2989 15.4608 12.663 15.4608 12C15.4608 11.337 15.1967 10.7011 14.7267 10.2322C14.2566 9.76339 13.6191 9.49999 12.9544 9.49999C12.2897 9.49999 11.6522 9.76339 11.1822 10.2322C10.7122 10.7011 10.4481 11.337 10.4481 12C10.4481 12.663 10.7122 13.2989 11.1822 13.7678C11.6522 14.2366 12.2897 14.5 12.9544 14.5Z" fill="#1410B4"/>
</svg>
