<svg width="18" height="18" viewBox="0 0 18 18" fill="none" xmlns="http://www.w3.org/2000/svg">
<path d="M16 0H2C0.89 0 0 0.787076 0 1.74906V13.9925C0 14.9545 0.9 15.7415 2 15.7415H6L8.29 17.7442C8.68 18.0853 9.31 18.0853 9.7 17.7442L12 15.7415H16C17.1 15.7415 18 14.9545 18 13.9925V1.74906C18 0.787076 17.1 0 16 0ZM10 13.9925H8V12.2434H10V13.9925ZM12.07 7.21487L11.17 8.01943C10.59 8.53541 10.18 8.98142 10.05 9.82096C9.99 10.197 9.64 10.4856 9.2 10.4856H8.89C8.37 10.4856 7.97 10.0833 8.04 9.62857C8.15 8.83275 8.57 8.12438 9.18 7.58217L10.42 6.48026C10.78 6.16543 11 5.72817 11 5.24718C11 4.28519 10.1 3.49812 9 3.49812C8.13 3.49812 7.38 3.9966 7.11 4.67873C6.98 5.00231 6.67 5.23843 6.28 5.23843H5.98C5.4 5.23843 5 4.74869 5.16 4.25896C5.65 2.80724 7.18 1.74906 9 1.74906C11.21 1.74906 13 3.31447 13 5.24718C13 6.01676 12.64 6.71638 12.07 7.21487Z" fill="#75898C"/>
</svg>
