<svg width="17" height="21" viewBox="0 0 17 21" fill="none" xmlns="http://www.w3.org/2000/svg">
<path d="M0.0566406 21C0.0566406 18.8783 0.902484 16.8434 2.4081 15.3431C3.91371 13.8429 5.95575 13 8.08501 13C10.2143 13 12.2563 13.8429 13.7619 15.3431C15.2675 16.8434 16.1134 18.8783 16.1134 21H14.1063C14.1063 19.4087 13.4719 17.8826 12.3427 16.7574C11.2135 15.6321 9.68195 15 8.08501 15C6.48807 15 4.95653 15.6321 3.82732 16.7574C2.69812 17.8826 2.06373 19.4087 2.06373 21H0.0566406ZM8.08501 12C4.75825 12 2.06373 9.315 2.06373 6C2.06373 2.685 4.75825 0 8.08501 0C11.4118 0 14.1063 2.685 14.1063 6C14.1063 9.315 11.4118 12 8.08501 12ZM8.08501 10C10.3028 10 12.0992 8.21 12.0992 6C12.0992 3.79 10.3028 2 8.08501 2C5.86717 2 4.07082 3.79 4.07082 6C4.07082 8.21 5.86717 10 8.08501 10Z" fill="#1410B4"/>
</svg>
