<svg width="20" height="20" viewBox="0 0 20 20" fill="none" xmlns="http://www.w3.org/2000/svg">
<path d="M10 0C15.523 0 20 4.477 20 10C20 15.523 15.523 20 10 20C4.477 20 0 15.523 0 10C0 4.477 4.477 0 10 0ZM12 8H8C7.75507 8.00003 7.51866 8.08996 7.33563 8.25272C7.15259 8.41547 7.03566 8.63975 7.007 8.883L7 9V13H8.5V17H11.5V13H13V9C13 8.75507 12.91 8.51866 12.7473 8.33563C12.5845 8.15259 12.3603 8.03566 12.117 8.007L12 8ZM10 3C9.46957 3 8.96086 3.21071 8.58579 3.58579C8.21071 3.96086 8 4.46957 8 5C8 5.53043 8.21071 6.03914 8.58579 6.41421C8.96086 6.78929 9.46957 7 10 7C10.5304 7 11.0391 6.78929 11.4142 6.41421C11.7893 6.03914 12 5.53043 12 5C12 4.46957 11.7893 3.96086 11.4142 3.58579C11.0391 3.21071 10.5304 3 10 3Z" fill="#75898C"/>
</svg>
