<svg width="57" height="58" viewBox="0 0 57 58" fill="none" xmlns="http://www.w3.org/2000/svg">
<g clip-path="url(#clip0_1365_1278)">
<path d="M48.4025 20.8908L45.4812 25.2845C46.89 28.0943 47.5797 31.2098 47.4886 34.3516C47.3974 37.4935 46.5281 40.5637 44.9588 43.287H12.0413C10.0015 39.7485 9.15633 35.6469 9.63096 31.5903C10.1056 27.5337 11.8748 23.738 14.6763 20.7659C17.4777 17.7939 21.1624 15.8036 25.1839 15.0903C29.2054 14.377 33.3497 14.9785 37.0025 16.8058L41.3963 13.8845C36.9229 11.016 31.6168 9.73067 26.3266 10.234C21.0365 10.7373 16.0679 13.0003 12.2158 16.6609C8.36366 20.3216 5.85049 25.1683 5.07827 30.426C4.30605 35.6836 5.31941 41.0483 7.95625 45.662C8.37071 46.3799 8.96584 46.9769 9.68247 47.3935C10.3991 47.8102 11.2123 48.032 12.0413 48.037H44.935C45.772 48.0404 46.595 47.8225 47.3207 47.4054C48.0464 46.9883 48.649 46.3869 49.0675 45.662C51.2558 41.8713 52.3539 37.5497 52.2408 33.1742C52.1276 28.7987 50.8075 24.5395 48.4262 20.867L48.4025 20.8908ZM25.1513 37.1358C25.5924 37.5774 26.1163 37.9278 26.6929 38.1668C27.2696 38.4059 27.8877 38.5289 28.5119 38.5289C29.1361 38.5289 29.7542 38.4059 30.3308 38.1668C30.9075 37.9278 31.4314 37.5774 31.8725 37.1358L45.315 16.972L25.1513 30.4145C24.7096 30.8557 24.3593 31.3796 24.1202 31.9562C23.8812 32.5328 23.7581 33.1509 23.7581 33.7752C23.7581 34.3994 23.8812 35.0175 24.1202 35.5941C24.3593 36.1708 24.7096 36.6946 25.1513 37.1358V37.1358Z" fill="white"/>
</g>
<defs>
<clipPath id="clip0_1365_1278">
<rect width="57" height="57" fill="white" transform="translate(0 0.537109)"/>
</clipPath>
</defs>
</svg>
